<?xml version="1.0" standalone="no"?>
<!DOCTYPE svg PUBLIC "-//W3C//DTD SVG 20010904//EN"
 "http://www.w3.org/TR/2001/REC-SVG-20010904/DTD/svg10.dtd">
<svg version="1.0" xmlns="http://www.w3.org/2000/svg"
 width="438.000000pt" height="438.000000pt" viewBox="0 0 438.000000 438.000000"
 preserveAspectRatio="xMidYMid meet">
<metadata>
Created by potrace 1.11, written by Peter Selinger 2001-2013
</metadata>
<g transform="translate(0.000000,438.000000) scale(0.100000,-0.100000)"
fill="#000000" stroke="none">
<path d="M2422 4201 c-11 -6 -10 -10 4 -15 9 -3 19 -4 22 -1 3 3 0 5 -7 5 -7
0 -9 5 -6 10 7 12 4 12 -13 1z"/>
<path d="M1948 4193 c7 -3 16 -2 19 1 4 3 -2 6 -13 5 -11 0 -14 -3 -6 -6z"/>
<path d="M2470 4190 c8 -5 24 -10 34 -10 26 0 18 6 -19 14 -22 5 -26 4 -15 -4z"/>
<path d="M1798 4183 c6 -2 18 -2 25 0 6 3 1 5 -13 5 -14 0 -19 -2 -12 -5z"/>
<path d="M1861 4186 c12 -10 60 -16 54 -6 -3 5 -18 10 -32 10 -15 0 -24 -2
-22 -4z"/>
<path d="M2558 4183 c6 -2 18 -2 25 0 6 3 1 5 -13 5 -14 0 -19 -2 -12 -5z"/>
<path d="M1760 4170 c8 -5 24 -10 34 -10 26 0 18 6 -19 14 -22 5 -26 4 -15 -4z"/>
<path d="M2590 4170 c-21 -7 -21 -8 -5 -9 11 0 27 4 35 9 18 11 5 11 -30 0z"/>
<path d="M1845 4161 c-6 -5 -28 -11 -50 -14 -40 -4 -40 -4 8 -5 26 -1 47 2 47
7 0 5 10 12 23 14 20 4 20 4 2 6 -12 0 -25 -3 -30 -8z"/>
<path d="M1938 4163 c7 -3 16 -2 19 1 4 3 -2 6 -13 5 -11 0 -14 -3 -6 -6z"/>
<path d="M2423 4155 c0 -9 4 -11 11 -6 6 4 18 11 26 14 9 3 5 6 -11 6 -16 1
-26 -4 -26 -14z"/>
<path d="M2505 4160 c-3 -6 1 -7 9 -4 18 7 21 14 7 14 -6 0 -13 -4 -16 -10z"/>
<path d="M1900 4156 c0 -2 7 -7 16 -10 8 -3 12 -2 9 4 -6 10 -25 14 -25 6z"/>
<path d="M1995 4150 c-13 -6 -15 -9 -5 -9 8 0 22 4 30 9 18 12 2 12 -25 0z"/>
<path d="M2360 4150 c8 -5 22 -9 30 -9 10 0 8 3 -5 9 -27 12 -43 12 -25 0z"/>
<path d="M1688 4143 c7 -3 16 -2 19 1 4 3 -2 6 -13 5 -11 0 -14 -3 -6 -6z"/>
<path d="M2458 4143 c7 -3 16 -2 19 1 4 3 -2 6 -13 5 -11 0 -14 -3 -6 -6z"/>
<path d="M2553 4143 c15 -2 37 -2 50 0 12 2 0 4 -28 4 -27 0 -38 -2 -22 -4z"/>
<path d="M1560 4124 c-24 -9 -29 -13 -14 -13 11 -1 29 6 40 14 22 17 20 17
-26 -1z"/>
<path d="M2790 4125 c14 -8 30 -14 35 -14 6 0 -1 6 -15 14 -14 8 -29 14 -35
14 -5 0 1 -6 15 -14z"/>
<path d="M1604 4114 c-11 -8 -32 -15 -47 -16 -28 -2 -35 -12 -17 -23 6 -3 10
-2 10 3 0 5 12 12 28 15 30 7 59 24 52 30 -3 3 -14 -1 -26 -9z"/>
<path d="M2750 4125 c0 -15 35 -34 60 -34 24 1 23 1 -5 11 -16 6 -36 15 -42
21 -7 5 -13 6 -13 2z"/>
<path d="M1464 4092 c-8 -5 -7 -11 4 -22 14 -13 15 -12 9 4 -6 14 -4 17 8 12
9 -3 13 -2 10 4 -7 12 -16 12 -31 2z"/>
<path d="M2836 4083 c-4 -9 -4 -18 -1 -21 3 -3 5 0 5 6 0 6 8 12 18 14 15 3
16 4 0 10 -10 4 -19 1 -22 -9z"/>
<path d="M2905 4080 c-3 -6 1 -7 9 -4 18 7 21 14 7 14 -6 0 -13 -4 -16 -10z"/>
<path d="M1430 4070 c8 -5 20 -10 25 -10 6 0 3 5 -5 10 -8 5 -19 10 -25 10 -5
0 -3 -5 5 -10z"/>
<path d="M1568 4073 c7 -3 16 -2 19 1 4 3 -2 6 -13 5 -11 0 -14 -3 -6 -6z"/>
<path d="M2798 4073 c7 -3 16 -2 19 1 4 3 -2 6 -13 5 -11 0 -14 -3 -6 -6z"/>
<path d="M1376 4048 c5 -8 2 -9 -11 -4 -18 7 -18 6 0 -14 21 -23 4 -28 -18 -5
-13 13 -17 13 -27 0 -7 -8 -17 -12 -23 -8 -6 4 -7 1 -2 -7 6 -10 4 -12 -9 -7
-11 5 -15 3 -10 -5 5 -8 1 -9 -12 -4 -15 6 -16 5 -7 -5 9 -9 17 -8 37 4 14 10
27 13 31 7 3 -5 18 -8 33 -7 23 2 27 7 28 35 0 17 -3 32 -8 32 -5 0 -6 -5 -2
-12z m-26 -38 c8 -5 11 -10 5 -10 -5 0 -17 5 -25 10 -8 5 -10 10 -5 10 6 0 17
-5 25 -10z"/>
<path d="M2993 4024 c1 -21 6 -34 14 -34 7 0 13 4 13 9 0 11 40 9 59 -3 7 -5
18 -3 24 3 9 9 7 10 -7 5 -15 -6 -17 -4 -11 6 5 8 4 11 -2 7 -6 -4 -16 0 -23
8 -10 13 -14 13 -27 0 -18 -19 -40 -21 -25 -2 7 8 6 16 -3 24 -10 9 -12 5 -12
-23z"/>
<path d="M3160 3971 c8 -6 10 -11 5 -11 -6 0 -11 -11 -11 -24 0 -20 3 -23 17
-15 27 14 36 10 15 -6 -11 -8 -15 -15 -10 -15 6 0 19 6 29 14 18 13 49 11 41
-3 -2 -3 8 -7 22 -8 25 -1 25 0 -8 17 -19 10 -38 16 -42 13 -5 -2 -13 -1 -19
3 -8 4 -7 9 2 16 10 6 7 7 -9 3 -15 -4 -22 -2 -20 5 2 7 -4 15 -12 17 -13 4
-13 3 0 -6z"/>
<path d="M1180 3960 c-11 -7 -11 -10 -2 -10 7 0 10 -5 7 -11 -4 -6 -12 -8 -19
-6 -6 3 -27 -3 -46 -13 -33 -17 -33 -17 -7 -17 15 0 24 3 22 7 -9 15 25 19 39
5 19 -20 32 -19 16 0 -14 17 -7 19 20 5 16 -9 18 -7 15 10 -8 40 -19 47 -45
30z"/>
<path d="M3315 3860 c0 -16 4 -31 8 -34 4 -4 5 -3 2 1 -3 4 5 13 17 20 l23 14
-22 -6 c-17 -5 -22 -3 -17 8 3 8 2 17 -3 20 -5 3 -8 -7 -8 -23z"/>
<path d="M1053 3867 c6 -15 3 -17 -16 -12 l-22 6 23 -14 c12 -7 19 -17 15 -22
-4 -4 -3 -5 4 -1 12 6 10 43 -3 55 -4 3 -4 -2 -1 -12z"/>
<path d="M932 3789 c-34 -27 -62 -52 -62 -56 0 -4 10 3 23 14 16 15 28 18 42
13 25 -11 40 -12 32 -3 -4 3 1 15 10 26 18 20 18 20 -9 2 -36 -22 -36 -9 -1
18 15 12 36 20 48 18 11 -1 16 1 12 5 -17 17 -35 10 -95 -37z"/>
<path d="M3365 3832 c4 -4 10 -7 14 -7 3 0 22 -12 41 -27 19 -15 29 -28 21
-28 -8 0 -24 8 -35 18 -21 17 -21 17 -3 -4 9 -11 14 -24 10 -27 -9 -10 1 -9
33 3 l27 11 -43 32 c-38 27 -84 48 -65 29z"/>
<path d="M3489 3748 c8 -11 9 -18 3 -18 -6 0 -14 5 -17 10 -3 6 -11 10 -18 10
-6 0 -3 -6 8 -13 10 -8 15 -19 12 -24 -4 -6 4 -9 19 -7 37 4 37 8 7 35 -15 13
-21 16 -14 7z"/>
<path d="M896 3731 c-10 -11 -25 -17 -34 -14 -10 5 -13 3 -8 -6 5 -8 3 -11 -6
-9 -16 3 -158 -128 -158 -146 0 -5 14 6 30 24 32 36 42 27 11 -11 -16 -20 -16
-25 -4 -37 23 -24 6 -26 -26 -3 l-29 21 -23 -32 c-13 -18 -27 -36 -32 -39 -5
-4 -6 -17 -2 -30 7 -21 6 -22 -7 -11 -13 10 -18 9 -29 -4 -8 -10 -14 -20 -14
-23 0 -3 -3 -5 -7 -3 -12 3 -10 -16 2 -23 6 -4 8 -11 4 -16 -3 -6 -12 -5 -22
3 -12 9 -11 6 2 -10 20 -23 32 -30 21 -12 -3 6 -2 10 3 10 6 0 13 7 16 16 3 8
2 12 -4 9 -17 -10 -11 11 8 27 9 9 29 14 45 13 28 -4 29 -2 31 50 1 28 4 30
40 30 38 0 58 16 37 29 -15 10 8 56 25 49 20 -7 17 7 -3 23 -17 12 -17 13 -1
14 9 0 20 10 24 22 6 20 8 20 19 5 12 -16 13 -16 18 4 4 14 10 18 19 14 10 -6
11 -5 1 6 -19 20 -16 33 3 14 23 -22 49 -15 50 14 1 14 10 30 20 38 10 7 13
13 7 13 -5 0 -18 -9 -27 -19z m-16 -41 c0 -5 -4 -10 -10 -10 -5 0 -10 5 -10
10 0 6 5 10 10 10 6 0 10 -4 10 -10z m-185 -173 c6 -5 3 -7 -7 -4 -22 8 -36
-12 -33 -45 2 -15 -1 -31 -7 -34 -7 -5 -9 -1 -5 9 4 11 2 14 -9 10 -20 -7 -18
14 4 26 9 6 14 11 9 11 -4 0 0 11 9 25 9 14 19 22 23 18 3 -4 11 -12 16 -16z"/>
<path d="M3515 3690 c-3 -5 -1 -10 4 -10 6 0 11 5 11 10 0 6 -2 10 -4 10 -3 0
-8 -4 -11 -10z"/>
<path d="M3475 3681 c-3 -5 0 -13 6 -17 7 -4 9 -3 5 4 -3 5 0 13 6 15 9 4 10
6 1 6 -6 1 -14 -3 -18 -8z"/>
<path d="M3535 3673 c-16 -13 -17 -15 -2 -10 9 4 17 2 17 -4 0 -6 8 -8 19 -4
13 4 20 0 24 -15 3 -11 13 -20 22 -20 12 0 15 -5 10 -20 -4 -12 -2 -20 5 -20
6 0 8 5 4 12 -4 6 5 3 19 -8 15 -10 24 -25 22 -33 -3 -7 0 -20 6 -27 8 -10 8
-14 0 -14 -6 0 -11 5 -11 11 0 8 -5 8 -15 -1 -17 -14 -21 0 -4 17 7 7 8 17 1
28 -6 12 -11 14 -16 6 -4 -6 -2 -11 4 -11 8 0 8 -6 0 -21 -15 -27 -7 -34 38
-34 34 0 37 -2 38 -30 2 -52 3 -54 32 -50 15 1 35 -4 45 -13 20 -17 23 -37 5
-26 -7 4 -5 -2 5 -13 9 -11 14 -24 10 -29 -5 -5 2 0 14 10 18 15 20 21 10 36
-6 10 -16 18 -21 17 -6 -1 -10 3 -11 8 -1 23 -17 36 -29 26 -20 -17 -53 23
-37 43 11 13 -1 30 -71 101 -99 103 -107 108 -133 88z m168 -136 c34 -35 38
-45 25 -53 -7 -4 -10 -3 -5 1 4 5 -5 21 -20 37 -15 15 -23 28 -19 28 4 0 13
-6 19 -13z m37 -98 c0 -6 -4 -7 -10 -4 -5 3 -10 11 -10 16 0 6 5 7 10 4 6 -3
10 -11 10 -16z m94 -70 c-3 -5 -10 -7 -15 -3 -5 3 -7 10 -3 15 3 5 10 7 15 3
5 -3 7 -10 3 -15z"/>
<path d="M3560 3613 c0 -9 3 -13 7 -10 3 4 13 1 21 -6 13 -11 14 -9 1 11 -16
26 -29 29 -29 5z"/>
<path d="M815 3600 c-3 -5 -1 -10 4 -10 6 0 11 5 11 10 0 6 -2 10 -4 10 -3 0
-8 -4 -11 -10z"/>
<path d="M3756 3467 c3 -10 9 -15 12 -12 3 3 0 11 -7 18 -10 9 -11 8 -5 -6z"/>
<path d="M3146 3413 c-3 -3 2 -12 12 -19 19 -15 32 -18 32 -6 0 11 -37 32 -44
25z"/>
<path d="M1170 3375 c-13 -14 -18 -25 -12 -25 6 0 23 11 38 25 18 16 22 25 12
25 -8 0 -25 -11 -38 -25z"/>
<path d="M516 3352 c-3 -5 1 -9 9 -9 8 0 12 4 9 9 -3 4 -7 8 -9 8 -2 0 -6 -4
-9 -8z"/>
<path d="M3846 3352 c-3 -5 1 -9 9 -9 8 0 12 4 9 9 -3 4 -7 8 -9 8 -2 0 -6 -4
-9 -8z"/>
<path d="M1100 3325 c0 -8 4 -15 9 -15 5 0 11 7 15 15 3 9 0 15 -9 15 -8 0
-15 -7 -15 -15z"/>
<path d="M3205 3332 c29 -20 35 -95 35 -431 l0 -341 -1055 0 c-1048 0 -1055 0
-1055 -20 0 -11 3 -19 8 -19 4 1 478 1 1055 0 l1048 -1 -3 -713 c-3 -666 -4
-715 -21 -740 -10 -15 -15 -33 -11 -39 4 -7 3 -8 -5 -4 -6 4 -23 -2 -37 -13
-15 -12 -33 -21 -40 -21 -8 0 -14 -4 -14 -10 0 -5 8 -10 18 -10 14 0 15 -2 2
-10 -9 -6 -17 -5 -22 3 -5 9 -228 13 -925 17 -512 3 -927 9 -938 14 -11 5 -29
16 -39 25 -15 13 -18 13 -14 2 2 -8 13 -19 24 -25 10 -6 21 -12 24 -14 2 -2
-2 -8 -10 -13 -11 -8 -10 -9 8 -4 24 7 31 -9 7 -19 -8 -3 -15 -13 -14 -23 0
-14 2 -15 6 -3 11 28 28 29 54 4 17 -16 25 -34 23 -49 -2 -21 0 -23 17 -15 15
8 23 6 36 -10 39 -46 92 -100 97 -100 3 0 36 -32 74 -71 37 -40 120 -124 185
-188 130 -127 147 -149 126 -162 -11 -7 -10 -9 4 -9 9 0 17 5 17 12 0 6 11 1
25 -12 14 -13 25 -29 25 -37 0 -7 5 -13 10 -13 6 0 22 -11 35 -24 l23 -24 -24
-11 c-14 -6 -31 -11 -39 -11 -8 0 -15 -3 -15 -7 0 -5 26 -8 57 -9 32 -1 76 -6
98 -12 52 -15 222 -16 231 -1 4 7 22 9 48 5 28 -5 52 -2 71 8 31 16 164 40
172 32 3 -2 -17 -7 -44 -11 -26 -4 -59 -10 -73 -15 -28 -10 58 -1 100 10 22 6
24 11 21 53 l-3 47 41 0 41 0 0 40 0 40 40 0 40 0 0 40 0 40 40 0 40 0 0 40 0
40 40 0 40 0 0 40 0 40 40 0 40 0 0 40 0 40 40 0 40 0 0 40 0 40 40 0 40 0 0
40 0 40 41 0 42 0 -5 53 c-3 28 -3 46 -1 40 3 -8 22 -13 44 -13 39 0 39 0 39
40 l0 40 40 0 40 0 0 40 0 40 40 0 40 0 0 40 0 40 40 0 40 0 0 40 0 40 40 0
40 0 0 40 0 40 40 0 40 0 0 40 0 40 40 0 40 0 0 40 0 40 40 0 40 0 0 40 0 40
40 0 40 0 0 40 0 40 40 0 40 0 0 40 0 40 44 0 c41 0 44 2 39 23 -3 12 -3 20 0
17 3 -3 8 -18 11 -34 6 -35 16 -46 17 -20 0 18 1 18 9 -1 5 -12 9 -14 9 -6 1
8 -5 22 -13 30 -18 21 -29 71 -16 71 5 0 10 -9 10 -19 0 -30 19 -35 26 -6 3
13 10 22 15 19 5 -3 10 7 11 23 3 53 4 58 11 70 4 7 7 27 7 45 0 18 2 48 6 67
5 24 3 32 -5 27 -6 -4 -11 -3 -11 3 0 5 5 11 12 13 8 3 13 44 16 120 4 109 3
119 -19 155 -13 21 -32 46 -43 56 -12 11 -20 26 -18 34 3 12 -2 14 -17 10 -13
-3 -21 0 -21 7 0 6 -21 29 -46 51 -25 22 -67 62 -92 89 -26 27 -60 63 -77 79
-16 16 -29 37 -27 46 2 12 1 13 -6 3 -7 -11 -15 -6 -35 19 -19 25 -23 36 -14
42 8 5 4 7 -10 5 -16 -2 -69 45 -221 197 -110 109 -198 203 -196 207 3 4 -1 8
-9 8 -8 0 -46 34 -86 75 -39 41 -77 75 -84 75 -8 0 -8 -3 -2 -8z m952 -1534
c-3 -8 -6 -5 -6 6 -1 11 2 17 5 13 3 -3 4 -12 1 -19z m-871 -695 c-10 -10 -19
5 -10 18 6 11 8 11 12 0 2 -7 1 -15 -2 -18z m-59 -85 c-3 -8 -6 -5 -6 6 -1 11
2 17 5 13 3 -3 4 -12 1 -19z m-36 -21 c-6 -8 -8 -17 -4 -20 9 -9 -7 -8 -32 3
-19 8 -19 9 3 9 12 1 22 6 22 11 0 6 5 10 11 10 8 0 9 -4 0 -13z m39 -11 c0
-2 -7 -7 -16 -10 -8 -3 -12 -2 -9 4 6 10 25 14 25 6z m-60 -30 c0 -2 -7 -7
-16 -10 -8 -3 -12 -2 -9 4 6 10 25 14 25 6z m-1830 -76 c0 -5 -4 -10 -10 -10
-5 0 -10 5 -10 10 0 6 5 10 10 10 6 0 10 -4 10 -10z m1053 -667 c-7 -2 -19 -2
-25 0 -7 3 -2 5 12 5 14 0 19 -2 13 -5z m42 -3 c-3 -5 -12 -10 -18 -10 -7 0
-6 4 3 10 19 12 23 12 15 0z m-426 -4 c-2 -2 -17 -6 -34 -10 -22 -5 -26 -4
-15 4 14 9 59 15 49 6z m288 -2 c-3 -3 -12 -4 -19 -1 -8 3 -5 6 6 6 11 1 17
-2 13 -5z m57 -13 c3 -4 -6 -6 -19 -3 -14 2 -25 6 -25 8 0 8 39 4 44 -5z m43
3 c-3 -3 -12 -4 -19 -1 -8 3 -5 6 6 6 11 1 17 -2 13 -5z"/>
<path d="M482 3299 c-7 -12 -11 -23 -8 -26 3 -3 -5 -14 -17 -24 -13 -11 -17
-18 -9 -19 7 0 10 -5 7 -10 -4 -6 -10 -8 -15 -5 -13 8 -30 -29 -21 -44 6 -10
10 -10 12 -2 3 7 13 13 24 15 10 1 21 9 23 17 3 11 2 11 -7 -1 -7 -11 -10 -7
-9 18 1 31 18 47 18 17 0 -20 16 -19 24 1 3 8 2 12 -3 9 -5 -3 -12 -1 -15 4
-3 5 1 11 9 15 8 3 15 11 14 18 0 10 -2 10 -6 0 -2 -6 -9 -9 -15 -6 -5 3 -2
14 8 25 9 10 13 19 8 19 -5 0 -15 -9 -22 -21z m-51 -112 c-10 -9 -11 -8 -5 6
3 10 9 15 12 12 3 -3 0 -11 -7 -18z"/>
<path d="M3280 3310 c-9 -6 -10 -10 -3 -10 6 0 15 5 18 10 8 12 4 12 -15 0z"/>
<path d="M3893 3258 c1 -7 -3 -12 -10 -11 -7 2 -10 -4 -7 -12 8 -19 24 -19 24
0 0 30 17 14 18 -17 1 -25 -2 -29 -9 -18 -9 12 -10 12 -7 1 2 -8 12 -15 23
-17 10 -1 21 -8 25 -14 5 -8 9 -7 13 3 3 8 -1 23 -9 34 -13 17 -14 17 -8 -2 6
-20 6 -20 -11 0 -10 13 -12 21 -5 23 7 3 5 11 -6 23 -20 22 -35 25 -31 7z"/>
<path d="M1080 2938 c-3 -180 -2 -324 3 -319 4 4 6 151 5 327 l-3 319 -5 -327z"/>
<path d="M1320 2975 l0 -265 870 0 869 0 3 265 3 265 -872 0 -873 0 0 -265z
m1600 5 l0 -150 -80 0 -80 0 0 150 0 150 80 0 80 0 0 -150z"/>
<path d="M2782 2978 l3 -123 53 -3 52 -3 0 125 0 126 -55 0 -56 0 3 -122z"/>
<path d="M3360 3231 c0 -6 5 -13 10 -16 6 -3 10 1 10 9 0 9 -4 16 -10 16 -5 0
-10 -4 -10 -9z"/>
<path d="M496 3193 c-6 -14 -5 -15 5 -6 7 7 10 15 7 18 -3 3 -9 -2 -12 -12z"/>
<path d="M3870 3201 c0 -6 4 -13 10 -16 6 -3 7 1 4 9 -7 18 -14 21 -14 7z"/>
<path d="M1104 2885 c0 -165 2 -234 3 -153 2 81 2 216 0 300 -1 84 -3 18 -3
-147z"/>
<path d="M3961 3144 c-12 -27 -11 -28 4 -12 10 9 16 21 13 28 -2 7 -10 -1 -17
-16z"/>
<path d="M401 3155 c0 -5 6 -19 14 -29 8 -11 15 -15 15 -10 0 6 -7 19 -15 30
-8 10 -14 15 -14 9z"/>
<path d="M3440 3159 c0 -4 7 -20 15 -35 8 -16 15 -22 15 -13 0 14 -29 61 -30
48z"/>
<path d="M3981 3100 c0 -19 7 -44 16 -55 l16 -20 -8 20 c-4 11 -11 36 -15 55
l-8 35 -1 -35z"/>
<path d="M393 3069 c11 -22 21 -38 23 -36 7 6 -20 66 -31 71 -6 2 -3 -14 8
-35z"/>
<path d="M4001 3100 c-1 -18 16 -46 23 -40 2 3 -2 16 -9 30 -8 15 -14 19 -14
10z"/>
<path d="M3959 3068 c-3 -22 -1 -34 4 -29 5 5 7 21 5 37 -3 27 -4 26 -9 -8z"/>
<path d="M352 3065 c-7 -15 -8 -27 -2 -30 13 -8 30 3 29 18 0 9 -2 9 -6 0 -2
-7 -9 -13 -14 -13 -6 0 -5 9 1 21 7 11 10 23 7 25 -2 2 -9 -7 -15 -21z"/>
<path d="M3510 3072 c0 -5 7 -13 16 -16 10 -4 14 -1 12 6 -5 15 -28 23 -28 10z"/>
<path d="M4025 3039 c-4 -6 -5 -12 -2 -15 2 -3 7 2 10 11 7 17 1 20 -8 4z"/>
<path d="M330 3025 c0 -5 5 -17 10 -25 5 -8 10 -10 10 -5 0 6 -5 17 -10 25 -5
8 -10 11 -10 5z"/>
<path d="M4036 3015 c-9 -26 -7 -32 5 -12 6 10 9 21 6 23 -2 3 -7 -2 -11 -11z"/>
<path d="M315 2989 c-4 -6 -5 -12 -2 -15 2 -3 7 2 10 11 7 17 1 20 -8 4z"/>
<path d="M4056 2987 c3 -10 9 -15 12 -12 3 3 0 11 -7 18 -10 9 -11 8 -5 -6z"/>
<path d="M331 2961 c-1 -21 -3 -22 -18 -10 -15 13 -15 12 -2 -8 16 -27 33 -15
26 18 l-4 24 -2 -24z"/>
<path d="M4065 2950 c-4 -6 -11 -8 -16 -5 -13 9 -7 -47 8 -69 11 -17 12 -15 6
17 -3 23 -1 42 7 52 7 8 10 15 7 15 -3 0 -9 -5 -12 -10z"/>
<path d="M301 2914 c0 -11 3 -14 6 -6 3 7 2 16 -1 19 -3 4 -6 -2 -5 -13z"/>
<path d="M4072 2920 c0 -8 3 -24 7 -34 7 -19 8 -19 13 2 4 12 2 20 -2 17 -5
-3 -11 3 -13 12 -3 12 -5 13 -5 3z"/>
<path d="M291 2882 c-1 -8 -6 -10 -13 -6 -10 5 -10 4 -1 -6 15 -16 28 -8 20
12 -4 11 -6 11 -6 0z"/>
<path d="M315 2879 c-4 -6 -5 -12 -2 -15 2 -3 7 2 10 11 7 17 1 20 -8 4z"/>
<path d="M3760 2839 c0 -5 5 -7 10 -4 6 3 10 8 10 11 0 2 -4 4 -10 4 -5 0 -10
-5 -10 -11z"/>
<path d="M245 2760 c3 -5 8 -10 11 -10 2 0 4 5 4 10 0 6 -5 10 -11 10 -5 0 -7
-4 -4 -10z"/>
<path d="M4121 2754 c0 -11 3 -14 6 -6 3 7 2 16 -1 19 -3 4 -6 -2 -5 -13z"/>
<path d="M4136 2735 c-3 -9 -6 -24 -5 -33 0 -9 5 -4 10 12 9 32 6 48 -5 21z"/>
<path d="M229 2718 c-1 -7 -2 -27 -4 -44 -1 -17 -10 -47 -20 -67 -19 -40 -13
-61 16 -52 11 4 19 2 19 -4 0 -6 5 -11 11 -11 8 0 7 5 -2 16 -7 8 -21 13 -31
11 -19 -5 -24 12 -9 29 23 25 48 134 31 134 -6 0 -10 -6 -11 -12z"/>
<path d="M4110 2689 c0 -16 4 -28 9 -25 8 5 3 56 -5 56 -2 0 -4 -14 -4 -31z"/>
<path d="M4138 2674 c-30 -91 -32 -134 -6 -134 6 0 5 7 -2 15 -7 9 -10 19 -6
23 4 4 16 -3 26 -15 26 -32 35 -29 12 5 -30 43 -33 61 -16 93 8 17 14 37 12
46 -2 9 -11 -6 -20 -33z"/>
<path d="M256 2686 c-3 -13 -9 -32 -13 -41 -4 -12 -2 -16 7 -13 7 2 15 21 17
41 4 42 -2 49 -11 13z"/>
<path d="M4153 2647 c-8 -16 -7 -25 2 -34 10 -9 14 -9 19 3 4 10 2 12 -6 8 -7
-5 -9 1 -4 20 8 32 3 34 -11 3z"/>
<path d="M248 2609 c-3 -8 1 -20 8 -27 15 -14 17 -7 5 22 -6 15 -9 16 -13 5z"/>
<path d="M1117 2581 c-22 -37 -22 -67 -1 -75 14 -5 15 -4 5 8 -9 11 -9 22 4
52 19 46 15 53 -8 15z"/>
<path d="M1080 2568 c-3 -272 2 -1443 6 -1447 2 -3 4 329 4 737 -1 408 -3 742
-6 742 -2 0 -4 -15 -4 -32z"/>
<path d="M4070 2535 c0 -3 9 -15 20 -27 11 -13 20 -16 20 -9 0 7 -6 19 -14 27
-15 14 -26 18 -26 9z"/>
<path d="M181 2514 c0 -11 3 -14 6 -6 3 7 2 16 -1 19 -3 4 -6 -2 -5 -13z"/>
<path d="M4191 2514 c0 -11 3 -14 6 -6 3 7 2 16 -1 19 -3 4 -6 -2 -5 -13z"/>
<path d="M175 2435 c1 -25 5 -49 8 -52 4 -3 5 15 3 41 -1 25 -5 48 -8 52 -4 3
-5 -15 -3 -41z"/>
<path d="M1100 1830 c0 -359 2 -651 5 -648 6 6 7 1289 0 1296 -3 3 -5 -289 -5
-648z"/>
<path d="M4195 2461 c-3 -10 -1 -29 4 -42 8 -20 9 -18 8 19 -1 47 -3 50 -12
23z"/>
<path d="M4211 2374 c0 -11 3 -14 6 -6 3 7 2 16 -1 19 -3 4 -6 -2 -5 -13z"/>
<path d="M1346 2354 c-13 -13 -16 -42 -16 -163 0 -101 4 -151 12 -159 13 -13
291 -18 322 -6 14 5 16 29 16 165 0 146 -1 159 -19 169 -11 5 -82 10 -160 10
-114 0 -142 -3 -155 -16z"/>
<path d="M1802 2358 c-8 -8 -12 -60 -12 -169 0 -134 2 -158 16 -163 9 -3 83
-6 164 -6 137 0 150 2 160 19 5 11 10 82 10 160 0 114 -3 142 -16 155 -13 13
-42 16 -163 16 -101 0 -151 -4 -159 -12z"/>
<path d="M2256 2354 c-23 -23 -23 -295 0 -318 13 -13 42 -16 159 -16 79 0 150
3 159 6 24 9 24 329 0 338 -9 3 -80 6 -159 6 -117 0 -146 -3 -159 -16z"/>
<path d="M2718 2359 c-16 -9 -18 -28 -18 -162 0 -106 4 -157 12 -165 17 -17
309 -17 326 0 8 8 12 59 12 165 0 140 -2 153 -19 163 -25 13 -290 13 -313 -1z"/>
<path d="M179 2324 c0 -25 -2 -26 -9 -9 -7 17 -9 15 -9 -12 -1 -17 3 -34 8
-37 10 -7 26 72 17 81 -3 4 -6 -7 -7 -23z"/>
<path d="M163 2097 c0 -26 4 -44 8 -40 4 5 3 26 -1 48 l-8 40 1 -48z"/>
<path d="M173 1995 c0 -22 2 -30 4 -17 2 12 2 30 0 40 -3 9 -5 -1 -4 -23z"/>
<path d="M1342 1908 c-14 -14 -17 -294 -4 -316 7 -9 48 -12 173 -10 l164 3 0
165 0 165 -160 3 c-116 2 -164 -1 -173 -10z"/>
<path d="M1794 1907 c-2 -7 -3 -82 -2 -167 l3 -155 159 -3 c108 -2 163 1 172
9 19 15 20 299 2 317 -18 18 -327 17 -334 -1z"/>
<path d="M2252 1908 c-18 -18 -17 -302 2 -317 9 -8 64 -11 172 -9 l159 3 0
165 0 165 -160 3 c-116 2 -164 -1 -173 -10z"/>
<path d="M2705 1907 c-3 -6 -4 -181 -3 -387 l3 -375 164 -3 c125 -2 166 1 173
10 9 15 11 728 2 752 -5 14 -30 16 -170 16 -123 0 -166 -3 -169 -13z"/>
<path d="M210 1811 c0 -6 5 -13 10 -16 6 -3 10 1 10 9 0 9 -4 16 -10 16 -5 0
-10 -4 -10 -9z"/>
<path d="M202 1765 c0 -16 2 -22 5 -12 2 9 2 23 0 30 -3 6 -5 -1 -5 -18z"/>
<path d="M260 1765 c-2 -30 -2 -30 -10 -5 -7 21 -8 21 -9 5 0 -11 3 -27 8 -34
8 -12 11 -9 16 12 4 14 5 32 2 39 -3 7 -6 0 -7 -17z"/>
<path d="M4171 1764 c0 -11 3 -14 6 -6 3 7 2 16 -1 19 -3 4 -6 -2 -5 -13z"/>
<path d="M221 1753 c0 -12 -4 -30 -7 -40 -5 -17 -5 -17 6 0 6 10 9 28 7 40 -4
22 -4 22 -6 0z"/>
<path d="M236 1683 c4 -16 11 -39 16 -53 7 -21 7 -19 3 9 -3 18 -5 42 -5 52 0
11 -5 19 -10 19 -6 0 -8 -11 -4 -27z"/>
<path d="M4122 1625 c0 -16 2 -22 5 -12 2 9 2 23 0 30 -3 6 -5 -1 -5 -18z"/>
<path d="M256 1591 c-4 -5 -2 -20 3 -33 9 -21 10 -21 10 10 1 32 -3 39 -13 23z"/>
<path d="M310 1491 c0 -6 4 -12 9 -15 13 -8 19 -52 10 -68 -5 -10 -3 -15 5
-15 9 0 13 13 12 39 -1 21 -4 38 -8 38 -5 0 -8 7 -8 15 0 8 -4 15 -10 15 -5 0
-10 -4 -10 -9z"/>
<path d="M4040 1474 c-13 -33 -12 -43 1 -24 7 11 8 5 5 -22 -3 -20 -1 -40 4
-43 6 -4 7 1 3 11 -5 13 -3 15 8 9 8 -4 11 -5 7 0 -4 4 -2 15 5 23 7 10 8 13
1 9 -17 -10 -29 44 -12 54 10 7 10 9 0 9 -7 0 -17 -12 -22 -26z"/>
<path d="M1340 1461 c-5 -11 -10 -82 -10 -160 0 -114 3 -142 16 -155 13 -13
41 -16 155 -16 78 0 149 5 160 10 17 10 19 23 19 163 0 106 -4 157 -12 165 -8
8 -59 12 -165 12 -140 0 -153 -2 -163 -19z"/>
<path d="M1803 1473 c-17 -6 -18 -318 -2 -329 21 -12 323 -4 331 9 13 21 10
301 -4 315 -12 12 -297 17 -325 5z"/>
<path d="M2252 1468 c-18 -18 -17 -302 2 -317 9 -8 64 -11 172 -9 l159 3 0
165 0 165 -160 3 c-116 2 -164 -1 -173 -10z"/>
<path d="M307 1430 c3 -11 7 -20 9 -20 2 0 4 9 4 20 0 11 -4 20 -9 20 -5 0 -7
-9 -4 -20z"/>
<path d="M4030 1359 c0 -5 5 -7 10 -4 6 3 10 8 10 11 0 2 -4 4 -10 4 -5 0 -10
-5 -10 -11z"/>
<path d="M350 1333 c1 -5 9 -24 20 -43 23 -41 27 -23 5 20 -15 29 -25 38 -25
23z"/>
<path d="M380 1333 c0 -4 5 -15 10 -23 8 -13 10 -13 10 2 0 9 -4 20 -10 23 -5
3 -10 3 -10 -2z"/>
<path d="M4016 1328 c3 -5 10 -6 15 -3 13 9 11 12 -6 12 -8 0 -12 -4 -9 -9z"/>
<path d="M403 1276 c-6 -19 -7 -40 -2 -47 7 -11 9 -11 9 1 0 13 2 13 11 0 9
-12 9 -11 3 5 -4 11 -7 32 -6 48 2 36 -2 34 -15 -7z"/>
<path d="M4005 1300 c-3 -5 -1 -10 4 -10 6 0 11 5 11 10 0 6 -2 10 -4 10 -3 0
-8 -4 -11 -10z"/>
<path d="M3951 1234 c0 -11 3 -14 6 -6 3 7 2 16 -1 19 -3 4 -6 -2 -5 -13z"/>
<path d="M416 1197 c3 -10 9 -15 12 -12 3 3 0 11 -7 18 -10 9 -11 8 -5 -6z"/>
<path d="M443 1163 c0 -10 3 -10 16 0 12 10 14 9 9 -4 -10 -25 6 -43 22 -24
11 13 10 14 -4 9 -12 -5 -15 -2 -10 10 4 11 13 15 22 11 9 -3 13 -2 8 2 -13
13 -63 10 -63 -4z"/>
<path d="M3904 1141 c0 -23 1 -41 2 -41 7 0 42 66 38 72 -11 17 -25 7 -19 -14
6 -23 6 -23 -8 0 -13 23 -14 22 -13 -17z"/>
<path d="M1102 1120 c0 -14 2 -19 5 -12 2 6 2 18 0 25 -3 6 -5 1 -5 -13z"/>
<path d="M1132 1120 c0 -14 2 -19 5 -12 2 6 2 18 0 25 -3 6 -5 1 -5 -13z"/>
<path d="M493 1115 c-3 -9 -3 -18 -1 -21 3 -3 8 4 11 16 6 23 -1 27 -10 5z"/>
<path d="M3876 1113 c-6 -14 -5 -15 5 -6 7 7 10 15 7 18 -3 3 -9 -2 -12 -12z"/>
<path d="M514 1085 c-4 -8 -11 -12 -17 -8 -6 3 -7 1 -3 -5 9 -15 36 -4 36 14
0 18 -9 18 -16 -1z"/>
<path d="M553 1085 c18 -13 23 -35 8 -35 -5 0 -12 6 -15 13 -3 6 -3 -1 1 -18
5 -29 5 -29 -10 -10 -26 32 -19 8 9 -35 15 -22 32 -40 38 -39 7 0 6 3 -2 6 -6
2 -10 9 -6 14 3 5 7 18 9 30 4 17 2 19 -10 9 -12 -10 -15 -10 -15 2 0 8 4 18
9 24 5 5 11 18 15 29 5 16 1 20 -21 22 -25 1 -26 0 -10 -12z m27 -81 c0 -8
-19 -13 -24 -6 -3 5 1 9 9 9 8 0 15 -2 15 -3z"/>
<path d="M3850 1086 c0 -8 -6 -17 -12 -19 -8 -3 -6 -6 5 -6 11 -1 17 6 17 19
0 11 -2 20 -5 20 -3 0 -5 -6 -5 -14z"/>
<path d="M3802 1070 c0 -14 2 -19 5 -12 2 6 2 18 0 25 -3 6 -5 1 -5 -13z"/>
<path d="M3876 1078 c3 -5 10 -6 15 -3 13 9 11 12 -6 12 -8 0 -12 -4 -9 -9z"/>
<path d="M1155 1017 c0 -30 3 -40 10 -33 12 13 16 68 5 61 -5 -3 -10 -1 -12 5
-1 5 -3 -9 -3 -33z"/>
<path d="M3845 1034 c-22 -23 -27 -25 -42 -13 -17 12 -17 12 0 -6 17 -19 18
-19 49 13 18 17 29 32 25 32 -4 0 -19 -12 -32 -26z"/>
<path d="M3815 1040 c-3 -5 -1 -10 4 -10 6 0 11 5 11 10 0 6 -2 10 -4 10 -3 0
-8 -4 -11 -10z"/>
<path d="M1170 965 c-16 -19 -1 -19 24 0 16 12 17 15 4 15 -8 0 -21 -7 -28
-15z"/>
<path d="M1198 943 c7 -3 16 -2 19 1 4 3 -2 6 -13 5 -11 0 -14 -3 -6 -6z"/>
<path d="M611 919 c15 -11 28 -14 35 -8 6 5 15 5 20 1 4 -4 2 1 -5 11 -11 13
-17 15 -27 6 -8 -6 -14 -7 -14 -2 0 5 -7 10 -16 10 -12 0 -10 -5 7 -18z"/>
<path d="M3724 928 c3 -9 0 -19 -7 -22 -9 -3 -8 -5 1 -5 8 -1 10 -6 5 -13 -4
-7 -8 -17 -8 -23 -1 -5 -7 -9 -14 -7 -7 1 -10 -2 -6 -8 7 -11 -23 -9 -42 3 -6
4 -14 4 -16 0 -8 -14 -5 -63 4 -69 5 -3 9 0 9 6 0 6 5 8 10 5 6 -3 10 -2 10 3
0 6 -7 12 -15 16 -8 3 -15 13 -15 22 0 15 2 15 21 -2 12 -10 24 -17 28 -14 16
12 51 59 51 70 0 6 4 9 8 6 5 -3 9 1 9 9 0 8 -4 12 -8 9 -4 -2 -13 4 -19 13
-10 16 -11 16 -6 1z"/>
<path d="M3766 928 c3 -5 10 -6 15 -3 13 9 11 12 -6 12 -8 0 -12 -4 -9 -9z"/>
<path d="M1255 920 c3 -5 8 -10 11 -10 2 0 4 5 4 10 0 6 -5 10 -11 10 -5 0 -7
-4 -4 -10z"/>
<path d="M653 882 c4 -29 22 -48 32 -33 3 6 1 10 -5 9 -7 -2 -14 5 -15 15 -2
11 -6 22 -9 25 -4 3 -5 -4 -3 -16z"/>
<path d="M1236 876 c3 -9 11 -16 16 -16 13 0 5 23 -10 28 -7 2 -10 -2 -6 -12z"/>
<path d="M699 844 c-11 -14 -10 -18 6 -27 29 -16 42 -17 42 -1 0 10 -4 11 -10
5 -16 -16 -40 8 -26 25 6 8 9 14 6 14 -2 0 -11 -7 -18 -16z"/>
<path d="M729 843 c-13 -16 -12 -17 4 -4 9 7 17 15 17 17 0 8 -8 3 -21 -13z"/>
<path d="M1315 810 c9 -30 13 -35 21 -27 3 3 -2 16 -11 29 l-17 23 7 -25z"/>
<path d="M1360 795 c0 -8 5 -15 10 -15 6 0 10 7 10 15 0 8 -4 15 -10 15 -5 0
-10 -7 -10 -15z"/>
<path d="M1390 792 c0 -5 7 -15 15 -22 8 -7 15 -8 15 -2 0 5 -7 15 -15 22 -8
7 -15 8 -15 2z"/>
<path d="M775 744 c99 -99 131 -124 131 -104 0 10 -5 16 -12 13 -6 -2 -17 3
-24 12 -12 14 -11 18 1 25 10 7 5 9 -16 7 -28 -2 -30 0 -29 35 0 21 -2 35 -5
33 -2 -3 -10 0 -17 6 -8 7 -14 7 -19 -1 -5 -8 -15 -6 -33 6 -14 9 -4 -5 23
-32z m39 -6 c-3 -5 -12 -4 -20 3 -7 6 -11 15 -8 21 3 5 12 4 20 -3 7 -6 11
-15 8 -21z"/>
<path d="M3570 760 c-8 -5 -15 -22 -15 -37 0 -15 -6 -27 -12 -26 -6 1 -14 -4
-17 -13 -4 -11 -2 -12 12 -5 28 15 73 63 69 75 -5 14 -20 17 -37 6z m24 -9 c3
-4 -2 -16 -12 -24 -16 -15 -18 -15 -18 3 0 10 4 16 8 14 4 -3 8 0 8 5 0 13 7
14 14 2z"/>
<path d="M1455 720 c3 -5 10 -10 16 -10 5 0 9 5 9 10 0 6 -7 10 -16 10 -8 0
-12 -4 -9 -10z"/>
<path d="M1418 703 c7 -3 16 -2 19 1 4 3 -2 6 -13 5 -11 0 -14 -3 -6 -6z"/>
<path d="M1475 700 c-3 -5 1 -10 9 -10 9 0 16 5 16 10 0 6 -4 10 -9 10 -6 0
-13 -4 -16 -10z"/>
<path d="M3474 659 c0 -36 2 -38 14 -22 7 10 19 17 25 15 7 -2 1 8 -12 22 -14
14 -25 26 -26 26 -1 0 -1 -18 -1 -41z m21 11 c3 -5 1 -10 -4 -10 -6 0 -11 5
-11 10 0 6 2 10 4 10 3 0 8 -4 11 -10z"/>
<path d="M1480 660 c20 -13 33 -13 25 0 -3 6 -14 10 -23 10 -15 0 -15 -2 -2
-10z"/>
<path d="M1530 630 c-24 -8 -23 -8 8 -9 20 -1 31 3 27 9 -3 6 -7 10 -8 9 -1
-1 -13 -5 -27 -9z"/>
<path d="M951 606 c-9 -10 -7 -16 6 -27 10 -7 15 -10 11 -5 -4 5 -3 17 3 27
11 22 -3 26 -20 5z"/>
<path d="M1000 613 c37 -12 60 -27 60 -40 0 -11 -7 -9 -29 6 -16 12 -34 21
-40 21 -18 0 -13 -25 9 -45 11 -10 20 -15 20 -10 0 4 -8 14 -17 21 -16 12 -16
13 -2 14 23 0 54 -36 37 -43 -8 -4 -6 -6 5 -6 10 -1 15 -6 12 -11 -4 -6 4 -5
19 1 20 10 30 9 51 -5 14 -9 25 -13 25 -8 0 11 -45 32 -68 32 -13 0 -17 9 -16
37 0 38 0 38 -40 40 -23 1 -34 -1 -26 -4z"/>
<path d="M3435 611 c-3 -5 -2 -12 3 -15 5 -3 9 1 9 9 0 17 -3 19 -12 6z"/>
<path d="M3411 593 c3 -20 -2 -27 -11 -13 -6 9 -10 10 -10 3 0 -19 17 -24 29
-9 9 10 9 16 1 21 -6 4 -10 3 -9 -2z"/>
<path d="M3352 545 c-6 -14 -10 -25 -8 -25 2 0 11 11 20 25 9 14 13 25 8 25
-5 0 -14 -11 -20 -25z"/>
<path d="M1590 550 c0 -5 5 -10 11 -10 5 0 7 5 4 10 -3 6 -8 10 -11 10 -2 0
-4 -4 -4 -10z"/>
<path d="M3234 525 c1 -8 6 -18 11 -22 4 -5 5 -2 0 6 -6 11 -4 13 8 8 23 -9
21 0 -2 13 -15 7 -19 7 -17 -5z"/>
<path d="M3293 534 c4 -7 0 -17 -8 -24 -8 -7 -12 -17 -8 -23 4 -6 0 -8 -11 -4
-11 5 -15 3 -10 -5 5 -7 2 -9 -8 -6 -8 4 -15 0 -15 -7 0 -11 6 -11 29 1 16 8
26 19 23 23 -2 5 3 15 12 22 9 8 17 12 19 9 1 -3 6 0 11 5 4 6 4 7 -1 3 -5 -4
-16 -2 -24 5 -10 7 -13 8 -9 1z"/>
<path d="M1646 521 c-9 -15 29 -59 40 -48 4 4 1 13 -8 20 -9 6 -18 19 -20 27
-3 11 -6 11 -12 1z"/>
<path d="M1075 510 c-3 -6 1 -7 9 -4 18 7 21 14 7 14 -6 0 -13 -4 -16 -10z"/>
<path d="M1090 494 c0 -6 12 -17 28 -25 36 -18 51 -23 29 -9 -9 6 -14 16 -11
22 5 7 2 9 -8 5 -9 -3 -21 0 -27 6 -7 7 -11 7 -11 1z"/>
<path d="M1174 448 c-5 -7 -2 -9 7 -6 15 6 41 -15 33 -26 -2 -3 -1 -4 3 -1 3
3 15 -2 25 -12 31 -28 20 -5 -13 27 -35 33 -44 36 -55 18z"/>
<path d="M1236 451 c-6 -9 7 -22 34 -35 8 -4 5 1 -8 12 -15 14 -18 22 -10 25
9 4 10 6 1 6 -6 1 -14 -3 -17 -8z"/>
<path d="M3183 453 c9 -2 15 -8 12 -13 -3 -5 -13 -7 -23 -4 -14 5 -14 4 -3 -4
10 -7 21 -7 34 0 16 8 17 12 6 19 -8 5 -21 8 -29 8 -11 -1 -10 -3 3 -6z"/>
<path d="M1726 441 c-9 -15 29 -59 40 -48 4 4 1 13 -8 20 -9 6 -18 19 -20 27
-3 11 -6 11 -12 1z"/>
<path d="M1287 405 c-16 -23 -16 -24 -1 -18 13 5 15 3 9 -8 -4 -8 -4 -11 0 -7
7 7 18 59 12 58 -1 0 -10 -12 -20 -25z"/>
<path d="M3070 420 c0 -13 11 -13 30 0 12 8 11 10 -7 10 -13 0 -23 -4 -23 -10z"/>
<path d="M3098 393 c7 -3 16 -2 19 1 4 3 -2 6 -13 5 -11 0 -14 -3 -6 -6z"/>
<path d="M1333 366 c0 -8 8 -12 21 -9 17 4 18 3 6 -6 -8 -6 -10 -11 -4 -11 5
0 16 6 23 13 11 10 13 9 9 -3 -4 -10 0 -16 11 -16 9 -1 30 -4 46 -8 22 -5 16
0 -19 18 -64 32 -93 39 -93 22z"/>
<path d="M1812 360 c0 -14 2 -19 5 -12 2 6 2 18 0 25 -3 6 -5 1 -5 -13z"/>
<path d="M2972 371 c-11 -6 -10 -10 0 -19 11 -8 14 -7 14 9 0 10 0 19 -1 19 0
0 -6 -4 -13 -9z"/>
<path d="M1416 361 c5 -5 20 -12 34 -15 l25 -7 -25 15 c-28 17 -50 21 -34 7z"/>
<path d="M3007 363 c-3 -5 5 -8 18 -8 13 0 21 3 18 8 -2 4 -10 7 -18 7 -8 0
-16 -3 -18 -7z"/>
<path d="M2925 330 c-18 -8 -18 -9 -2 -9 10 -1 15 -5 12 -11 -3 -6 1 -7 10 -3
12 4 13 8 5 13 -9 6 -9 9 1 13 8 3 10 5 4 6 -5 0 -19 -4 -30 -9z"/>
<path d="M1509 289 c-10 -8 -8 -9 9 -4 12 3 22 3 22 -2 0 -9 61 -35 67 -29 2
2 -9 10 -26 17 -16 7 -28 16 -26 19 6 10 -31 9 -46 -1z"/>
<path d="M1590 290 c0 -5 5 -10 10 -10 6 0 10 5 10 10 0 6 -4 10 -10 10 -5 0
-10 -4 -10 -10z"/>
<path d="M1652 288 c15 -5 34 -6 42 -1 10 6 1 9 -27 9 -38 1 -40 0 -15 -8z"/>
<path d="M2728 284 c24 -9 46 -13 50 -10 3 3 -2 6 -12 6 -9 0 -15 3 -13 8 3 4
-11 8 -31 9 l-37 2 43 -15z"/>
<path d="M2820 288 c-13 -8 -12 -9 2 -5 9 3 19 1 21 -6 2 -7 7 -9 11 -6 13 12
-19 28 -34 17z"/>
<path d="M1633 274 c1 -1 18 -9 37 -17 32 -13 36 -13 37 2 1 12 -8 16 -37 16
-22 1 -38 0 -37 -1z"/>
<path d="M2684 256 c-16 -13 -17 -17 -5 -28 8 -7 11 -8 8 -2 -11 20 20 36 55
30 25 -5 28 -4 13 3 -29 14 -49 13 -71 -3z"/>
<path d="M2795 260 c-3 -6 1 -7 9 -4 18 7 21 14 7 14 -6 0 -13 -4 -16 -10z"/>
<path d="M1655 240 c3 -5 11 -10 16 -10 6 0 7 5 4 10 -3 6 -11 10 -16 10 -6 0
-7 -4 -4 -10z"/>
<path d="M1921 234 c0 -11 3 -14 6 -6 3 7 2 16 -1 19 -3 4 -6 -2 -5 -13z"/>
<path d="M1787 213 c-3 -5 15 -8 38 -8 24 0 39 3 32 7 -16 10 -64 10 -70 1z"/>
</g>
</svg>
